<svg xmlns="http://www.w3.org/2000/svg" version="1.1" xmlnsXlink="http://www.w3.org/1999/xlink" xmlnsSvgjs="http://svgjs.com/svgjs" width="1440" height="540" preserveAspectRatio="none" viewBox="0 0 1440 540">
    <g mask="url(&quot;#SvgjsMask1463&quot;)" fill="none">
        <path d="M1560 540L0 540 L0 274.75Q75.02 229.77, 120 304.8Q177.43 290.23, 192 347.66Q244.38 280.05, 312 332.43Q362.36 262.79, 432 313.15Q510.67 271.81, 552 350.48Q606.64 285.12, 672 339.76Q723.26 271.02, 792 322.29Q830.18 240.47, 912 278.64Q964.21 258.85, 984 311.06Q1067 274.06, 1104 357.07Q1133.31 266.38, 1224 295.69Q1271.11 270.8, 1296 317.91Q1352.71 302.63, 1368 359.34Q1392.19 311.53, 1440 335.73Q1506.52 282.25, 1560 348.77z" fill="#182f5d"></path>
        <path d="M1560 540L0 540 L0 430.62Q43.75 354.37, 120 398.11Q152.6 310.71, 240 343.3Q291.36 322.66, 312 374.02Q342.81 332.82, 384 363.63Q450.75 358.38, 456 425.13Q471.34 368.47, 528 383.81Q593.63 329.44, 648 395.08Q667.41 342.49, 720 361.89Q749.06 318.94, 792 348Q864.76 300.76, 912 373.53Q999.08 340.61, 1032 427.69Q1035.9 359.59, 1104 363.49Q1133.82 321.31, 1176 351.13Q1223.2 326.33, 1248 373.53Q1306.9 360.43, 1320 419.33Q1374.86 354.19, 1440 409.05Q1464.9 313.95, 1560 338.85z" fill="#25467d"></path>
        <path d="M1560 540L0 540 L0 488.96Q17.04 434, 72 451.03Q124.75 383.77, 192 436.52Q264.56 389.08, 312 461.65Q352.55 382.19, 432 422.74Q479.37 398.11, 504 445.47Q565.38 434.85, 576 496.23Q601.13 449.36, 648 474.48Q655.16 409.64, 720 416.8Q761.69 386.5, 792 428.19Q868.43 384.63, 912 461.06Q961.8 390.86, 1032 440.65Q1088.62 425.27, 1104 481.89Q1125.91 431.8, 1176 453.71Q1189.02 394.73, 1248 407.75Q1314.24 353.99, 1368 420.22Q1421.39 401.61, 1440 455Q1520.95 415.95, 1560 496.9z" fill="#356cb1"></path>
        <path d="M1560 540L0 540 L0 499.19Q30.68 457.87, 72 488.54Q153.07 449.62, 192 530.69Q199.34 466.04, 264 473.38Q305.38 442.76, 336 484.14Q402.17 478.31, 408 544.48Q461.34 477.82, 528 531.15Q536.69 467.84, 600 476.53Q668.65 425.18, 720 493.83Q805.52 459.36, 840 544.88Q844.95 477.83, 912 482.77Q955.11 453.88, 984 496.98Q1047.23 488.22, 1056 551.45Q1107.54 482.99, 1176 534.53Q1190.67 477.2, 1248 491.88Q1292.17 464.06, 1320 508.23Q1401.46 469.69, 1440 551.15Q1484.1 475.25, 1560 519.34z" fill="white"></path>
    </g>
    <defs>
        <mask id="SvgjsMask1463">
            <rect width="1440" height="540" fill="#ffffff"></rect>
        </mask>
    </defs>
</svg>